<?xml version="1.0" encoding="UTF-8"?>
<!DOCTYPE svg PUBLIC "-//W3C//DTD SVG 1.1//EN" "http://www.w3.org/Graphics/SVG/1.1/DTD/svg11.dtd">
<svg xmlns="http://www.w3.org/2000/svg" version="1.1" width="946px" height="614px" style="shape-rendering:geometricPrecision; text-rendering:geometricPrecision; image-rendering:optimizeQuality; fill-rule:evenodd; clip-rule:evenodd" xmlns:xlink="http://www.w3.org/1999/xlink">
<g><path style="opacity:0.997" fill="#5d5d5d" d="M 79.5,-0.5 C 88.1667,-0.5 96.8333,-0.5 105.5,-0.5C 129.523,4.26629 147.69,17.2663 160,38.5C 202.529,141.086 244.862,243.753 287,346.5C 291.916,354.422 296.582,354.422 301,346.5C 301.333,242.5 301.667,138.5 302,34.5C 306.247,16.0883 317.414,4.42163 335.5,-0.5C 342.167,-0.5 348.833,-0.5 355.5,-0.5C 373.779,5.28342 384.945,17.6168 389,36.5C 389.667,213.167 389.667,389.833 389,566.5C 384.761,589.841 371.261,604.675 348.5,611C 323.264,615.267 303.764,606.767 290,585.5C 238.61,460.386 186.943,335.386 135,210.5C 129.636,204.939 123.136,203.105 115.5,205C 109.508,207.659 105.675,212.159 104,218.5C 103.937,234.22 103.271,249.887 102,265.5C 96.5577,281.276 85.7244,291.109 69.5,295C 40.576,298.048 22.7427,285.548 16,257.5C 15.0247,191.806 15.358,126.14 17,60.5C 25.5641,27.4342 46.3975,7.10083 79.5,-0.5 Z"/></g>
<g><path style="opacity:0.986" fill="#8e8e8e" d="M -0.5,407.5 C -0.5,399.5 -0.5,391.5 -0.5,383.5C 10.3013,346.072 35.3013,328.905 74.5,332C 108.296,339.782 125.962,360.949 127.5,395.5C 126.251,427.16 110.585,447.993 80.5,458C 48.9137,464.59 24.4137,454.423 7,427.5C 3.77518,420.979 1.27518,414.312 -0.5,407.5 Z"/></g>
<g><path style="opacity:0.983" fill="#5d5d5d" d="M 458.5,337.5 C 488.884,335.431 509.717,348.431 521,376.5C 523.596,387.414 524.096,398.414 522.5,409.5C 496.165,409.333 469.831,409.5 443.5,410C 454.5,426.709 468.333,429.542 485,418.5C 494.683,422.172 504.35,425.838 514,429.5C 507.038,441.785 496.538,449.952 482.5,454C 455.791,459.989 434.624,451.822 419,429.5C 410.135,411.85 408.469,393.517 414,374.5C 422.403,354.251 437.236,341.917 458.5,337.5 Z M 460.5,368.5 C 473.835,366.669 483.835,371.502 490.5,383C 475.156,383.833 459.822,383.666 444.5,382.5C 447.868,375.498 453.202,370.831 460.5,368.5 Z"/></g>
<g><path style="opacity:0.954" fill="#8e8e8e" d="M 688.5,338.5 C 699.214,337.569 709.547,339.069 719.5,343C 723.531,348.827 723.198,354.494 718.5,360C 716.801,360.958 714.967,361.458 713,361.5C 705.691,358.933 698.191,358.099 690.5,359C 680.23,362.808 678.23,369.141 684.5,378C 692.54,382.571 700.873,386.571 709.5,390C 724.041,397.917 729.874,410.084 727,426.5C 723.314,441.517 713.814,450.35 698.5,453C 686.925,454.339 675.592,453.339 664.5,450C 655.792,445.715 654.292,439.548 660,431.5C 661.907,430.07 664.074,429.404 666.5,429.5C 673.33,431.775 680.33,433.441 687.5,434.5C 692.881,434.264 697.714,432.597 702,429.5C 707.079,422.297 706.246,415.797 699.5,410C 692.435,406.135 685.102,402.802 677.5,400C 659.24,389.814 654.073,374.98 662,355.5C 668.401,345.913 677.234,340.247 688.5,338.5 Z"/></g>
<g><path style="opacity:0.923" fill="#8e8e8e" d="M 945.5,349.5 C 945.5,351.5 945.5,353.5 945.5,355.5C 941.663,364.578 934.996,367.411 925.5,364C 917.329,355.891 917.663,348.224 926.5,341C 935.58,338.027 941.913,340.861 945.5,349.5 Z"/></g>
<g><path style="opacity:0.982" fill="#5d5d5d" d="M 533.5,340.5 C 542.839,340.334 552.173,340.5 561.5,341C 562.126,341.75 562.626,342.584 563,343.5C 560.075,358.77 564.909,370.603 577.5,379C 595.684,384.658 607.851,378.491 614,360.5C 614.206,354.116 614.706,347.783 615.5,341.5C 625.06,340.183 634.56,340.183 644,341.5C 647.992,362.544 642.826,380.877 628.5,396.5C 643.099,412.458 648.099,431.125 643.5,452.5C 634.548,453.639 625.548,453.805 616.5,453C 616,452.5 615.5,452 615,451.5C 614.667,445.5 614.333,439.5 614,433.5C 606.746,412.966 593.246,407.466 573.5,417C 564.551,425.928 561.051,436.761 563,449.5C 562.751,450.624 562.251,451.624 561.5,452.5C 552.548,453.639 543.548,453.805 534.5,453C 530.947,438.451 532.447,424.285 539,410.5C 542.397,405.946 545.564,401.279 548.5,396.5C 534.562,380.335 529.562,361.668 533.5,340.5 Z"/></g>
<g><path style="opacity:0.958" fill="#8e8e8e" d="M 748.5,349.5 C 751.518,349.335 754.518,349.502 757.5,350C 758.333,350.833 759.167,351.667 760,352.5C 761.404,358.044 761.904,363.71 761.5,369.5C 766.511,369.334 771.511,369.501 776.5,370C 780.259,373.743 781.426,378.243 780,383.5C 779.535,384.931 778.701,386.097 777.5,387C 772.292,388.397 766.959,388.897 761.5,388.5C 761.333,402.504 761.5,416.504 762,430.5C 764.035,434.261 767.035,435.261 771,433.5C 779.068,435.423 781.734,440.423 779,448.5C 778.535,449.931 777.701,451.097 776.5,452C 769.582,453.551 762.582,453.884 755.5,453C 746.371,450.2 741.204,444.034 740,434.5C 739.5,419.17 739.333,403.837 739.5,388.5C 732.197,389.362 728.197,386.195 727.5,379C 727.814,371.33 731.814,368.163 739.5,369.5C 739.334,364.821 739.501,360.155 740,355.5C 741.943,352.122 744.776,350.122 748.5,349.5 Z"/></g>
<g><path style="opacity:0.955" fill="#8e8e8e" d="M 815.5,367.5 C 844.849,366.848 860.515,381.181 862.5,410.5C 861.103,437.229 847.103,451.896 820.5,454.5C 794.77,451.768 781.437,437.435 780.5,411.5C 781.24,387.794 792.906,373.127 815.5,367.5 Z M 817.5,386.5 C 829.926,386.085 837.092,392.085 839,404.5C 841.015,415.788 837.849,425.288 829.5,433C 816.063,437.282 807.563,432.449 804,418.5C 801.63,407.626 804.13,398.126 811.5,390C 813.432,388.541 815.432,387.375 817.5,386.5 Z"/></g>
<g><path style="opacity:0.956" fill="#8e8e8e" d="M 903.5,367.5 C 911.826,366.495 916.159,370.161 916.5,378.5C 916.442,382.269 915.108,385.435 912.5,388C 901.402,388.1 894.902,393.6 893,404.5C 892.968,419.593 892.302,434.593 891,449.5C 890.097,450.701 888.931,451.535 887.5,452C 883.5,452.667 879.5,452.667 875.5,452C 873.333,451.167 871.833,449.667 871,447.5C 870.333,422.833 870.333,398.167 871,373.5C 873.245,370.093 876.412,368.76 880.5,369.5C 885.177,368.516 888.511,370.183 890.5,374.5C 894.492,371.341 898.825,369.007 903.5,367.5 Z"/></g>
<g><path style="opacity:0.965" fill="#8e8e8e" d="M 925.5,369.5 C 930.179,369.334 934.845,369.501 939.5,370C 940.667,371.167 941.833,372.333 943,373.5C 943.667,398.167 943.667,422.833 943,447.5C 942.167,449.667 940.667,451.167 938.5,452C 934.5,452.667 930.5,452.667 926.5,452C 924.333,451.167 922.833,449.667 922,447.5C 921.333,423.167 921.333,398.833 922,374.5C 922.997,372.677 924.164,371.01 925.5,369.5 Z"/></g>
<g><path style="opacity:0.648" fill="#000000" d="M 303.5,613.5 C 302.5,613.5 301.5,613.5 300.5,613.5C 301.5,610.833 302.5,610.833 303.5,613.5 Z"/></g>
</svg>
